<svg width="20" height="15" viewBox="0 0 20 15" fill="none" xmlns="http://www.w3.org/2000/svg">
<path d="M11.667 9.91699C12.5722 9.91699 13.3292 10.4703 13.6055 11.2988L13.7002 11.584H18.751V12.417H17.084V14.084H16.251V12.417H13.7002L13.6055 12.7021C13.3293 13.5308 12.5722 14.084 11.667 14.084C10.4807 14.0838 9.58415 13.1873 9.58398 12.001C9.58398 10.8145 10.4806 9.91716 11.667 9.91699ZM10.001 0.750977C11.5175 0.751052 12.7932 1.27494 13.8379 2.32715L13.8408 2.33008C14.893 3.37473 15.4169 4.65051 15.417 6.16699V6.53906L15.7871 6.58105C16.6433 6.67784 17.3463 7.04565 17.9014 7.68945L17.9043 7.69238C18.2729 8.1129 18.5127 8.5741 18.6377 9.08398H17.7852C17.6644 8.73246 17.4693 8.42451 17.1895 8.15039H17.1904C16.7088 7.65869 16.1075 7.41699 15.417 7.41699H14.584V6.16699C14.5839 4.90451 14.1217 3.81764 13.248 2.92578L13.2441 2.9209L13.0752 2.76172C12.222 1.98963 11.1915 1.58406 10.001 1.58398C8.73836 1.58398 7.65073 2.04619 6.75879 2.91992L6.75293 2.92578C5.97681 3.7181 5.52665 4.66445 5.43555 5.75098H5.41699C4.50039 5.75105 3.71124 6.07635 3.06641 6.72852C2.41119 7.37424 2.08398 8.16516 2.08398 9.08398C2.08398 10.0025 2.41116 10.7992 3.0625 11.46L3.06641 11.4639C3.713 12.101 4.50227 12.4169 5.41699 12.417H7.10449C7.13023 12.7051 7.18191 12.9833 7.25684 13.251H5.41699C4.26888 13.2509 3.27804 12.8717 2.4707 12.0645L2.46777 12.0615L2.32031 11.9102C1.60727 11.1437 1.25098 10.2259 1.25098 9.15039C1.25103 8.15753 1.54614 7.28013 2.13965 6.50391L2.14062 6.50293C2.71423 5.75148 3.53826 5.23014 4.46289 5.0332L4.70996 4.98047L4.77734 4.73633C5.10322 3.54923 5.74167 2.59419 6.70703 1.85938L6.70801 1.86035C7.68171 1.13592 8.77869 0.750977 10.001 0.750977ZM11.667 10.751C10.9104 10.7512 10.417 11.3818 10.417 12.001C10.4172 12.62 10.9106 13.2508 11.667 13.251C12.4236 13.251 12.9168 12.6201 12.917 12.001C12.917 11.3817 12.4237 10.751 11.667 10.751Z" fill="black" stroke="#787A7F" stroke-width="0.833333"/>
</svg>
