<svg width="32" height="32" viewBox="0 0 32 32" fill="none" xmlns="http://www.w3.org/2000/svg">
<path d="M13 7H8C7.44772 7 7 7.44772 7 8V15C7 15.5523 7.44772 16 8 16H13C13.5523 16 14 15.5523 14 15V8C14 7.44772 13.5523 7 13 7Z" stroke="#606060" stroke-width="2" stroke-linecap="round" stroke-linejoin="round"/>
<path d="M24 7H19C18.4477 7 18 7.44772 18 8V11C18 11.5523 18.4477 12 19 12H24C24.5523 12 25 11.5523 25 11V8C25 7.44772 24.5523 7 24 7Z" stroke="#606060" stroke-width="2" stroke-linecap="round" stroke-linejoin="round"/>
<path d="M24 16H19C18.4477 16 18 16.4477 18 17V24C18 24.5523 18.4477 25 19 25H24C24.5523 25 25 24.5523 25 24V17C25 16.4477 24.5523 16 24 16Z" stroke="#606060" stroke-width="2" stroke-linecap="round" stroke-linejoin="round"/>
<path d="M13 20H8C7.44772 20 7 20.4477 7 21V24C7 24.5523 7.44772 25 8 25H13C13.5523 25 14 24.5523 14 24V21C14 20.4477 13.5523 20 13 20Z" stroke="#606060" stroke-width="2" stroke-linecap="round" stroke-linejoin="round"/>
</svg>
