<svg width="24" height="24" viewBox="0 0 24 24" fill="none" xmlns="http://www.w3.org/2000/svg">
<g clip-path="url(#clip0_236_156)">
<path d="M8.36104 0.787968C5.96307 1.61985 3.89506 3.19878 2.46077 5.29285C1.02649 7.38691 0.301526 9.88574 0.392371 12.4223C0.483217 14.9588 1.38508 17.3994 2.9655 19.3855C4.54591 21.3716 6.72158 22.7985 9.17292 23.4567C11.1603 23.9695 13.2424 23.992 15.2404 23.5223C17.0504 23.1158 18.7238 22.2462 20.0967 20.9986C21.5256 19.6605 22.5627 17.9582 23.0967 16.0748C23.677 14.0267 23.7803 11.8728 23.3985 9.77859H12.2385V14.408H18.7017C18.5725 15.1463 18.2957 15.851 17.8878 16.4799C17.48 17.1088 16.9494 17.6489 16.3279 18.068C15.5387 18.59 14.649 18.9413 13.716 19.0992C12.7803 19.2732 11.8205 19.2732 10.8848 19.0992C9.9364 18.9031 9.03923 18.5117 8.25042 17.9498C6.9832 17.0528 6.03168 15.7785 5.53167 14.3086C5.02319 12.8112 5.02319 11.1879 5.53167 9.69047C5.88759 8.64087 6.47598 7.68522 7.25292 6.89484C8.14203 5.97374 9.26766 5.31534 10.5063 4.99186C11.745 4.66838 13.0488 4.69234 14.2748 5.06109C15.2325 5.35508 16.1083 5.86873 16.8323 6.56109C17.561 5.83609 18.2885 5.10922 19.0148 4.38047C19.3898 3.98859 19.7985 3.61547 20.1679 3.21422C19.0627 2.18574 17.7654 1.38545 16.3504 0.859218C13.7736 -0.0764264 10.9541 -0.101571 8.36104 0.787968Z" fill="white"/>
<path d="M8.3607 0.788879C10.9536 -0.101264 13.7731 -0.0767817 16.3501 0.858254C17.7654 1.38806 19.062 2.1922 20.1657 3.2245C19.7907 3.62575 19.3951 4.00075 19.0126 4.39075C18.2851 5.117 17.5582 5.84075 16.832 6.562C16.1079 5.86964 15.2321 5.35599 14.2745 5.062C13.0489 4.69196 11.7451 4.66662 10.5061 4.98877C9.26712 5.31092 8.14079 5.96812 7.2507 6.88825C6.47377 7.67863 5.88538 8.63428 5.52945 9.68388L1.64258 6.6745C3.03384 3.91556 5.44273 1.80517 8.3607 0.788879Z" fill="#E33629"/>
<path d="M0.611401 9.65703C0.820316 8.62164 1.16716 7.61896 1.64265 6.67578L5.52953 9.69266C5.02105 11.19 5.02105 12.8134 5.52953 14.3108C4.23453 15.3108 2.9389 16.3158 1.64265 17.3258C0.452308 14.9564 0.0892746 12.2567 0.611401 9.65703Z" fill="#F8BD00"/>
<path d="M12.2391 9.77734H23.3991C23.7809 11.8716 23.6776 14.0255 23.0972 16.0736C22.5633 17.957 21.5261 19.6592 20.0972 20.9973C18.8429 20.0186 17.5829 19.0473 16.3285 18.0686C16.9504 17.6491 17.4812 17.1084 17.8891 16.4788C18.297 15.8493 18.5735 15.1439 18.7022 14.4048H12.2391C12.2372 12.8636 12.2391 11.3205 12.2391 9.77734Z" fill="#587DBD"/>
<path d="M1.64062 17.3255C2.93687 16.3255 4.2325 15.3205 5.5275 14.3105C6.02851 15.7809 6.98138 17.0553 8.25 17.9518C9.04127 18.511 9.94037 18.8993 10.89 19.0918C11.8257 19.2658 12.7855 19.2658 13.7213 19.0918C14.6542 18.9339 15.5439 18.5826 16.3331 18.0605C17.5875 19.0393 18.8475 20.0105 20.1019 20.9893C18.7292 22.2375 17.0558 23.1078 15.2456 23.5149C13.2476 23.9846 11.1655 23.9621 9.17813 23.4493C7.60632 23.0296 6.13814 22.2898 4.86563 21.2762C3.51874 20.2068 2.41867 18.8592 1.64062 17.3255Z" fill="#319F43"/>
</g>
<defs>
<clipPath id="clip0_236_156">
<rect width="24" height="24" fill="white"/>
</clipPath>
</defs>
</svg>
