<svg width="32" height="32" viewBox="0 0 32 32" fill="none" xmlns="http://www.w3.org/2000/svg">
<path d="M6.85938 4.70312V27.2969C6.85938 27.6852 7.17413 28 7.5625 28H24.4375C24.8259 28 25.1406 27.6852 25.1406 27.2969V7.51562C25.1406 7.32922 25.0667 7.15033 24.9346 7.01849L22.1221 4.20599C21.9903 4.07416 21.8116 4 21.625 4H7.5625C7.17413 4 6.85938 4.31476 6.85938 4.70312ZM23.2119 7.51562V8.21875H20.7507V5.54688H21.5L23.2119 7.51562ZM8.5 6.04688H19.1893V8.83984C19.1893 9.22821 19.6116 9.54688 20 9.54688L23.2119 9.625V26.3732H8.5V6.04688Z" fill="#606060"/>
<path d="M21.625 22.3281H21V14.5765C21 14.1881 20.6071 13.8906 20.2188 13.8906H17.4062C17.1333 13.8906 16.5 14.0469 16.5 14.5469V15.5469V16.5469H14.5C14.1116 16.5469 13.5 17.0469 13.5 17.5469V19.5469H11.5C11 19.5469 11 20.0469 11 20.5469V22.3281H10C9.82321 22.3281 9.5 22.6585 9.5 23.0469C9.5 23.4352 9.89062 23.7344 10 23.7344H21.625C22.0134 23.7344 22.3281 23.4196 22.3281 23.0312C22.3281 22.6429 22.0134 22.3281 21.625 22.3281ZM19.5156 15.2969V22.3281H18.1094V15.2969H19.5156ZM16.7031 18.1094V22.3281H15.2969V18.1094H16.7031ZM12.4844 20.9219H13.8906V22.3281H12.4844V20.9219Z" fill="#606060"/>
<path d="M10.375 10.0187H14.5938C14.9821 10.0187 15.2969 9.61586 15.2969 9.11875C15.2969 8.62164 14.9821 8.21875 14.5938 8.21875H10.375C9.98663 8.21875 9.67188 8.62164 9.67188 9.11875C9.67188 9.61586 9.98663 10.0187 10.375 10.0187Z" fill="#606060"/>
<path d="M10.375 12.8781H14.5938C14.9821 12.8781 15.2969 12.4752 15.2969 11.9781C15.2969 11.481 14.9821 11.0781 14.5938 11.0781H10.375C9.98663 11.0781 9.67188 11.481 9.67188 11.9781C9.67188 12.4752 9.98663 12.8781 10.375 12.8781Z" fill="#606060"/>
<path d="M10.375 15.6906H13.1875C13.5759 15.6906 13.8906 15.2877 13.8906 14.7906C13.8906 14.2935 13.5759 13.8906 13.1875 13.8906H10.375C9.98663 13.8906 9.67188 14.2935 9.67188 14.7906C9.67188 15.2877 9.98663 15.6906 10.375 15.6906Z" fill="#606060"/>
</svg>
