<svg width="32" height="32" viewBox="0 0 32 32" fill="none" xmlns="http://www.w3.org/2000/svg">
<g clip-path="url(#clip0_1994_9177)">
<path d="M25.2436 15.0469C24.9675 15.0469 24.7436 14.823 24.7436 14.5469V5.88619C24.7436 5.61005 24.5198 5.38619 24.2436 5.38619H22.5729C22.2967 5.38619 22.0729 5.16233 22.0729 4.88619V4.5C22.0729 4.22386 21.849 4 21.5729 4H8.53792C8.26178 4 8.03792 4.22386 8.03792 4.5V11.5469C8.03792 11.823 7.81407 12.0469 7.53792 12.0469H5.5C5.22386 12.0469 5 12.2707 5 12.5469V27.5469C5 27.823 5.22386 28.0469 5.5 28.0469H26.5C26.7762 28.0469 27 27.823 27 27.5469V15.5469C27 15.2707 26.7762 15.0469 26.5 15.0469H25.2436ZM22.5842 6.80303C22.8603 6.80303 23.0842 7.02689 23.0842 7.30303V14.7051C23.0842 14.9812 22.8603 15.2051 22.5842 15.2051H22.1248C21.8486 15.2051 21.6248 14.9812 21.6248 14.7051V7.30303C21.6248 7.02689 21.8486 6.80303 22.1248 6.80303H22.5842ZM10 6.54688C10 6.27073 10.2239 6.04688 10.5 6.04688H19.5C19.7762 6.04688 20 6.27073 20 6.54688V14.5469C20 14.823 19.7762 15.0469 19.5 15.0469H14.7342C14.5858 15.0469 14.4451 14.981 14.3501 14.867L12.1499 12.2268C12.0549 12.1128 11.9142 12.0469 11.7658 12.0469H10.5C10.2239 12.0469 10 11.823 10 11.5469V6.54688ZM25 25.5469C25 25.823 24.7762 26.0469 24.5 26.0469H7.50002C7.22388 26.0469 7.00002 25.823 7.00002 25.5469V14.5469C7.00002 14.2707 7.22388 14.0469 7.50002 14.0469H11.2658C11.4142 14.0469 11.5549 14.1128 11.6499 14.2268L13.8501 16.867C13.9451 16.981 14.0858 17.0469 14.2342 17.0469H24.5C24.7762 17.0469 25 17.2707 25 17.5469V25.5469Z" fill="#606060"/>
<path d="M17.1 7.04688H12.9C12.4029 7.04688 12 7.44982 12 7.94687C12 8.44393 12.4029 8.84687 12.9 8.84687H17.1C17.5971 8.84687 18 8.44393 18 7.94687C18 7.44982 17.5971 7.04688 17.1 7.04688Z" fill="#606060"/>
<path d="M17.1 10.0469H12.9C12.4029 10.0469 12 10.4498 12 10.9469C12 11.4439 12.4029 11.8469 12.9 11.8469H17.1C17.5971 11.8469 18 11.4439 18 10.9469C18 10.4498 17.5971 10.0469 17.1 10.0469Z" fill="#606060"/>
<path d="M22.9672 19.0195H19.7672C19.2701 19.0195 18.8672 19.4225 18.8672 19.9195C18.8672 20.4166 19.2701 20.8195 19.7672 20.8195H22.9672C23.4642 20.8195 23.8672 20.4166 23.8672 19.9195C23.8672 19.4225 23.4642 19.0195 22.9672 19.0195Z" fill="#606060"/>
<path d="M22.9672 22.0195H19.7672C19.2701 22.0195 18.8672 22.4225 18.8672 22.9195C18.8672 23.4166 19.2701 23.8195 19.7672 23.8195H22.9672C23.4642 23.8195 23.8672 23.4166 23.8672 22.9195C23.8672 22.4225 23.4642 22.0195 22.9672 22.0195Z" fill="#606060"/>
</g>
<defs>
<clipPath id="clip0_1994_9177">
<rect width="24" height="24" fill="white" transform="translate(4 4)"/>
</clipPath>
</defs>
</svg>
