<svg width="32" height="32" viewBox="0 0 32 32" fill="none" xmlns="http://www.w3.org/2000/svg">
<path d="M13.6703 8.1342C13.7254 7.55454 13.9947 7.01624 14.4254 6.62448C14.8562 6.23271 15.4176 6.01562 15.9998 6.01562C16.5821 6.01562 17.1435 6.23271 17.5742 6.62448C18.005 7.01624 18.2742 7.55454 18.3293 8.1342C18.3624 8.50865 18.4853 8.86962 18.6875 9.18654C18.8896 9.50346 19.1652 9.76701 19.4908 9.95488C19.8164 10.1427 20.1825 10.2494 20.558 10.2658C20.9336 10.2822 21.3076 10.2079 21.6483 10.0492C22.1774 9.80898 22.777 9.77422 23.3303 9.95168C23.8837 10.1292 24.3512 10.5061 24.6418 11.0093C24.9325 11.5125 25.0256 12.1058 24.903 12.6738C24.7803 13.2418 24.4507 13.7438 23.9783 14.0822C23.6707 14.298 23.4196 14.5848 23.2462 14.9182C23.0729 15.2516 22.9824 15.6219 22.9824 15.9977C22.9824 16.3735 23.0729 16.7438 23.2462 17.0772C23.4196 17.4106 23.6707 17.6974 23.9783 17.9132C24.4507 18.2516 24.7803 18.7536 24.903 19.3216C25.0256 19.8896 24.9325 20.4829 24.6418 20.9861C24.3512 21.4892 23.8837 21.8662 23.3303 22.0437C22.777 22.2212 22.1774 22.1864 21.6483 21.9462C21.3076 21.7875 20.9336 21.7132 20.558 21.7296C20.1825 21.746 19.8164 21.8527 19.4908 22.0405C19.1652 22.2284 18.8896 22.4919 18.6875 22.8089C18.4853 23.1258 18.3624 23.4867 18.3293 23.8612C18.2742 24.4409 18.005 24.9792 17.5742 25.3709C17.1435 25.7627 16.5821 25.9798 15.9998 25.9798C15.4176 25.9798 14.8562 25.7627 14.4254 25.3709C13.9947 24.9792 13.7254 24.4409 13.6703 23.8612C13.6373 23.4866 13.5144 23.1255 13.3122 22.8085C13.11 22.4914 12.8343 22.2278 12.5086 22.0399C12.1828 21.852 11.8166 21.7454 11.4409 21.7291C11.0652 21.7128 10.6911 21.7873 10.3503 21.9462C9.82122 22.1864 9.22165 22.2212 8.66833 22.0437C8.115 21.8662 7.6475 21.4892 7.35681 20.9861C7.06612 20.4829 6.97304 19.8896 7.09569 19.3216C7.21833 18.7536 7.54793 18.2516 8.02033 17.9132C8.32795 17.6974 8.57906 17.4106 8.75242 17.0772C8.92577 16.7438 9.01628 16.3735 9.01628 15.9977C9.01628 15.6219 8.92577 15.2516 8.75242 14.9182C8.57906 14.5848 8.32795 14.298 8.02033 14.0822C7.54859 13.7436 7.21958 13.2418 7.09723 12.6742C6.97488 12.1066 7.06794 11.5137 7.35831 11.0109C7.64869 10.5081 8.11564 10.1312 8.66842 9.95344C9.2212 9.7757 9.82031 9.80983 10.3493 10.0492C10.6901 10.2079 11.0641 10.2822 11.4396 10.2658C11.8152 10.2494 12.1813 10.1427 12.5069 9.95488C12.8325 9.76701 13.108 9.50346 13.3102 9.18654C13.5124 8.86962 13.6352 8.50865 13.6683 8.1342" stroke="#606060" stroke-width="2" stroke-linecap="round" stroke-linejoin="round"/>
<path d="M16 19C17.6569 19 19 17.6569 19 16C19 14.3431 17.6569 13 16 13C14.3431 13 13 14.3431 13 16C13 17.6569 14.3431 19 16 19Z" stroke="#606060" stroke-width="2" stroke-linecap="round" stroke-linejoin="round"/>
</svg>
