<svg width="33" height="32" viewBox="0 0 33 32" fill="none" xmlns="http://www.w3.org/2000/svg">
<path d="M28.1645 5.5H18.8645L16.7645 9.7H5.06445V26.5H30.2645V5.5H28.1645ZM28.1645 9.7H19.9645L21.0645 7.6H28.1645V9.7Z" fill="#55BCAF"/>
<path d="M31.0003 16.3637C30.9943 18.7447 30.9823 21.1257 31.0003 23.5067C31.0124 24.3297 30.7569 25.1344 30.2723 25.7997C29.5353 26.7825 28.6389 27.635 27.6203 28.3217C26.5683 29.0664 25.4581 29.7252 24.3003 30.2917C24.262 30.3163 24.218 30.3305 24.1725 30.3328C24.1271 30.3351 24.0818 30.3254 24.0413 30.3047C22.2388 29.4558 20.5726 28.3436 19.0973 27.0047C18.3906 26.3858 17.8392 25.6096 17.4873 24.7387C17.3784 24.4338 17.3233 24.1124 17.3243 23.7887V16.3527C17.3163 16.2918 17.332 16.2302 17.3681 16.1805C17.4042 16.1309 17.4579 16.0969 17.5183 16.0857C19.6783 15.2857 21.8366 14.4797 23.9933 13.6677C24.0449 13.646 24.1003 13.6348 24.1563 13.6348C24.2123 13.6348 24.2677 13.646 24.3193 13.6677C26.4773 14.477 28.6363 15.282 30.7963 16.0827C30.8597 16.0947 30.9162 16.1304 30.9541 16.1827C30.992 16.2349 31.0085 16.2997 31.0003 16.3637Z" fill="#13645D"/>
<path d="M31.5106 15.716C29.1066 14.8254 26.7042 13.9297 24.3036 13.029C24.2158 12.9929 24.1173 12.9929 24.0296 13.029C21.6349 13.9264 19.2389 14.82 16.8416 15.71C16.7849 15.7232 16.7355 15.7577 16.7035 15.8062C16.6715 15.8548 16.6593 15.9138 16.6696 15.971V23.719C16.6678 24.155 16.7475 24.5874 16.9046 24.994C17.298 25.9464 17.9045 26.7958 18.6776 27.477C20.2749 28.917 22.0878 30.098 24.0506 30.977C24.0931 30.9959 24.1398 31.0039 24.1862 31.0003C24.2327 30.9966 24.2775 30.9814 24.3166 30.956C25.3502 30.4768 26.3478 29.9234 27.3016 29.3C28.5204 28.5523 29.6108 27.6129 30.5306 26.518C31.2302 25.7324 31.6325 24.7265 31.6676 23.675V15.948C31.677 15.8965 31.6658 15.8433 31.6365 15.8C31.6071 15.7566 31.5619 15.7264 31.5106 15.716ZM29.9866 25.616C29.2841 26.5511 28.4303 27.3623 27.4606 28.016C26.4596 28.7262 25.4024 29.3536 24.2996 29.892C24.2629 29.9156 24.2208 29.9292 24.1773 29.9315C24.1338 29.9338 24.0904 29.9247 24.0516 29.905C22.3358 29.097 20.7492 28.0392 19.3436 26.766C18.6703 26.177 18.1451 25.4377 17.8106 24.608C17.7053 24.318 17.6524 24.0116 17.6546 23.703V16.619C17.6471 16.561 17.6622 16.5023 17.6965 16.4549C17.7309 16.4075 17.7821 16.375 17.8396 16.364C19.8976 15.6007 21.9532 14.834 24.0066 14.064C24.0558 14.0433 24.1086 14.0326 24.1621 14.0326C24.2155 14.0326 24.2683 14.0433 24.3176 14.064C26.3716 14.834 28.4276 15.6007 30.4856 16.364C30.5461 16.3755 30.5999 16.4099 30.6359 16.4599C30.6718 16.51 30.6871 16.572 30.6786 16.633C30.6726 18.9 30.6626 21.168 30.6786 23.433C30.6898 24.2157 30.447 24.981 29.9866 25.614V25.616Z" fill="#004D40"/>
<path d="M25.3053 18.0007C25.1811 18.2982 25.1133 18.6163 25.1053 18.9387C25.1053 18.9747 25.0673 19.0157 25.0373 19.0467C24.9439 19.1432 24.8831 19.2667 24.8637 19.3997C24.8443 19.5327 24.8671 19.6684 24.929 19.7877C24.9909 19.907 25.0888 20.0038 25.2087 20.0644C25.3286 20.1251 25.4646 20.1465 25.5973 20.1257C25.4157 19.8145 25.3097 19.4651 25.2878 19.1055C25.266 18.7459 25.3289 18.3862 25.4716 18.0554C25.6142 17.7246 25.8326 17.4319 26.1091 17.2009C26.3855 16.9699 26.7124 16.8071 27.0633 16.7257C27.3726 16.6465 27.6947 16.6313 28.01 16.6808C28.3254 16.7302 28.6273 16.8434 28.8975 17.0135C29.1676 17.1835 29.4003 17.4068 29.5813 17.6697C29.7623 17.9326 29.8879 18.2296 29.9503 18.5427C30.0557 19.1063 29.9437 19.6889 29.6371 20.1735C29.3305 20.658 28.8518 21.0086 28.2973 21.1547L28.2223 20.7717C28.5002 20.6877 28.7549 20.5408 28.9668 20.3425C29.1788 20.1442 29.3422 19.8998 29.4444 19.6281C29.5466 19.3565 29.5849 19.065 29.5562 18.7761C29.5276 18.4873 29.4329 18.209 29.2793 17.9627C29.1369 17.7444 28.9527 17.5566 28.7372 17.4101C28.5217 17.2636 28.2793 17.1613 28.024 17.1091C27.7686 17.0569 27.5055 17.0559 27.2498 17.1061C26.9941 17.1563 26.7509 17.2568 26.5343 17.4017C26.1282 17.6662 25.8428 18.0803 25.7402 18.554C25.6376 19.0277 25.726 19.5228 25.9863 19.9317C26.0489 19.8718 26.0981 19.7992 26.1305 19.7188C26.1628 19.6385 26.1777 19.5521 26.1741 19.4656C26.1705 19.379 26.1485 19.2942 26.1096 19.2168C26.0707 19.1394 26.0157 19.0712 25.9483 19.0167C25.9193 18.997 25.8967 18.9693 25.8832 18.937C25.8697 18.9047 25.8659 18.8691 25.8723 18.8347L25.9513 18.3837L25.9933 18.3697C26.1073 18.4897 26.2303 18.6017 26.3333 18.7297C26.6389 19.1351 26.7965 19.633 26.7798 20.1405C26.7632 20.648 26.5733 21.1345 26.2418 21.519C25.9102 21.9036 25.4571 22.1631 24.9576 22.2544C24.4581 22.3456 23.9424 22.2632 23.4963 22.0207C23.4698 21.9995 23.4368 21.9879 23.4028 21.9879C23.3689 21.9879 23.3359 21.9995 23.3093 22.0207C23.2599 22.062 23.1967 22.0829 23.1324 22.0792C23.0681 22.0755 23.0076 22.0474 22.9633 22.0007C22.9384 21.9832 22.9127 21.9668 22.8863 21.9517C22.8579 21.9308 22.8249 21.917 22.7901 21.9114C22.7553 21.9058 22.7196 21.9086 22.6861 21.9196C22.6526 21.9305 22.6221 21.9493 22.5973 21.9744C22.5725 21.9994 22.554 22.03 22.5433 22.0637C22.4913 22.2007 22.4433 22.3387 22.3883 22.4757C22.3818 22.5013 22.3697 22.5251 22.353 22.5456C22.3362 22.566 22.3151 22.5824 22.2913 22.5938C22.2674 22.6052 22.2413 22.6111 22.2149 22.6113C22.1885 22.6114 22.1623 22.6057 22.1383 22.5947C21.9677 22.5347 21.7967 22.476 21.6253 22.4187C21.5501 22.4093 21.4739 22.4258 21.4092 22.4654C21.3446 22.505 21.2952 22.5654 21.2693 22.6367L21.2253 22.9147C21.2063 23.0497 21.1343 23.1017 20.9913 23.0987C20.9054 23.0949 20.8194 23.1023 20.7353 23.1207C20.5883 23.1567 20.5463 23.2877 20.5053 23.4077C20.4393 23.5987 20.3293 23.6317 20.1523 23.6177C20.0742 23.6161 19.9968 23.6329 19.9263 23.6667C19.8013 23.7247 19.6873 23.8037 19.5633 23.8667C19.5172 23.8887 19.4649 23.894 19.4153 23.8817C19.1153 23.7917 18.8203 23.6947 18.5233 23.5997C18.3543 23.5457 18.3173 23.4937 18.3473 23.3257C18.3873 23.0967 18.4333 22.8687 18.4753 22.6397C18.4872 22.5743 18.514 22.5125 18.5538 22.4593C18.5935 22.406 18.645 22.3627 18.7043 22.3327C19.8803 21.6707 21.0553 21.0077 22.2293 20.3437C22.2635 20.3304 22.2921 20.3057 22.3104 20.2739C22.3286 20.242 22.3353 20.2049 22.3293 20.1687C22.3171 19.8156 22.389 19.4648 22.5389 19.145C22.6889 18.8252 22.9127 18.5456 23.1919 18.3292C23.471 18.1128 23.7976 17.9658 24.1447 17.9003C24.4918 17.8349 24.8495 17.8528 25.1883 17.9527C25.2213 17.9647 25.2633 17.9807 25.3053 18.0007ZM22.4803 20.9007L22.3643 20.9627L21.2043 21.6197L19.1233 22.8007C19.0073 22.8657 18.9913 22.9117 19.0433 23.0067C19.1063 23.1187 19.1563 23.1317 19.2773 23.0637L21.6633 21.7157L22.6183 21.1767L22.4803 20.9007Z" fill="white"/>
<path d="M23.8948 22.4738C24.3242 22.5908 24.7765 22.5953 25.2081 22.4867C25.6397 22.3781 26.036 22.1601 26.3588 21.8538C26.6784 21.5634 26.9152 21.1934 27.045 20.7816C27.1748 20.3698 27.1931 19.9309 27.0978 19.5098C27.4699 19.7598 27.7564 20.1179 27.9185 20.5359C28.0805 20.9539 28.1104 21.4115 28.0041 21.847C27.8978 22.2825 27.6604 22.6749 27.324 22.9712C26.9875 23.2675 26.5683 23.4534 26.1228 23.5038C26.081 23.5116 26.0384 23.5149 25.9958 23.5138C25.9288 23.5005 25.8593 23.5112 25.7995 23.5442C25.7397 23.5771 25.6934 23.6301 25.6688 23.6938C25.6508 23.7358 25.5688 23.7628 25.5098 23.7778C25.4524 23.7849 25.3943 23.7849 25.3368 23.7778C25.2996 23.7711 25.2613 23.7741 25.2256 23.7865C25.1899 23.7989 25.158 23.8203 25.1329 23.8487C25.1079 23.877 25.0906 23.9113 25.0827 23.9483C25.0748 23.9853 25.0766 24.0237 25.0878 24.0598L25.1578 24.4598C25.1828 24.6078 25.1298 24.6788 24.9818 24.7048L24.4698 24.7968C24.4033 24.8262 24.348 24.8762 24.312 24.9393C24.276 25.0025 24.2612 25.0756 24.2698 25.1478L24.3818 25.4308C24.4308 25.5538 24.3968 25.6308 24.2818 25.6958C24.2 25.7391 24.1246 25.7937 24.0578 25.8578C23.9328 25.9828 24.0078 26.1358 24.0218 26.2768C24.0327 26.3231 24.0268 26.3719 24.0049 26.4142C23.9831 26.4566 23.9469 26.4897 23.9028 26.5078C23.8259 26.535 23.7561 26.5791 23.6983 26.6366C23.6405 26.6942 23.5963 26.764 23.5688 26.8408C23.53 26.9472 23.4598 27.0394 23.3675 27.1051C23.2752 27.1708 23.1651 27.2069 23.0518 27.2088C22.8346 27.2406 22.6193 27.2843 22.4068 27.3398C22.2148 27.3808 22.1578 27.3498 22.0928 27.1698C22.0188 26.9698 21.9498 26.7578 21.8718 26.5538C21.844 26.488 21.833 26.4164 21.8399 26.3453C21.8467 26.2743 21.871 26.206 21.9108 26.1468C22.5838 25.0078 23.2518 23.8668 23.9248 22.7288C23.9648 22.6418 24.0068 22.5688 23.8948 22.4738ZM24.4468 23.0628L24.4288 23.0768C23.7808 24.1754 23.1332 25.2754 22.4858 26.3768C22.4738 26.3916 22.4655 26.4091 22.4615 26.4278C22.4575 26.4465 22.4579 26.4659 22.4628 26.4844C22.4677 26.5029 22.4768 26.52 22.4895 26.5343C22.5022 26.5486 22.518 26.5597 22.5358 26.5668C22.6468 26.6338 22.7018 26.6178 22.7748 26.4938L24.6418 23.3198L24.6908 23.2298L24.4468 23.0628Z" fill="white"/>
</svg>
