<svg width="32" height="32" viewBox="0 0 32 32" fill="none" xmlns="http://www.w3.org/2000/svg">
<path d="M19 6H10C9.46957 6 8.96086 6.21071 8.58579 6.58579C8.21071 6.96086 8 7.46957 8 8V24C8 24.5304 8.21071 25.0391 8.58579 25.4142C8.96086 25.7893 9.46957 26 10 26H22C22.5304 26 23.0391 25.7893 23.4142 25.4142C23.7893 25.0391 24 24.5304 24 24V11L19 6Z" stroke="#606060" stroke-width="2" stroke-linecap="round" stroke-linejoin="round"/>
<path d="M18 6V10C18 10.5304 18.2107 11.0391 18.5858 11.4142C18.9609 11.7893 19.4696 12 20 12H24" stroke="#606060" stroke-width="2" stroke-linecap="round" stroke-linejoin="round"/>
<path d="M18.1996 21.5357C18.1836 21.3997 18.2876 21.0718 18.4196 20.8519C18.5995 20.5559 18.5675 20.18 18.3436 19.9201C18.1196 19.6561 17.7517 19.5682 17.4318 19.7001L16.2441 20.188C16.604 19.3362 16.8079 18.4204 16.544 17.7486C16.308 17.1447 15.7602 16.8008 15.0363 16.8008C12.7329 16.8008 10.5094 21.0158 10.0855 21.8596C9.88551 22.2555 10.0495 22.7354 10.4414 22.9314C10.8373 23.1273 11.3172 22.9674 11.5131 22.5755C12.5249 20.5599 14.1805 18.4004 15.0323 18.4004H15.0683C15.1523 18.9683 14.2765 20.7639 13.7206 21.2758C13.4367 21.5397 13.3807 21.9676 13.5887 22.2915C13.7966 22.6195 14.2085 22.7514 14.5684 22.6035L16.612 21.7637C16.644 22.0316 16.7439 22.2955 16.9359 22.5355C17.2878 22.9754 17.8397 23.1953 18.6235 23.1953C19.3554 23.1953 20.2911 23.0034 21.4509 22.6235C21.8708 22.4835 22.0987 22.0316 21.9588 21.6117C21.8188 21.1918 21.3709 20.9638 20.947 21.1038C18.9115 21.7757 18.3076 21.5917 18.1956 21.5397L18.1996 21.5357Z" fill="#606060"/>
</svg>
